# xmcd
#
# Track frame offsets:
#	150
#	36248
#	123894
#	277446
#
# Disc length: 4671 seconds
#
# Revision: 0
# Processed by: cddbd v1.5.2PL0 Copyright (c) Steve Scherf et al.
# Submitted via: EasyCDDAExtractor 2010.6.0.0
#
DISCID=39123d04
DTITLE=印度大吉嶺竹巴噶舉 - 中陰救度聞解脫、文武百尊淨障禮懺
DYEAR=2005
DGENRE=Buddha
TTITLE0=吉祥莊嚴長號嗩吶供佛法樂
TTITLE1=中陰文武百尊供佛燈供迴向文
TTITLE2=中陰文武百尊淨障禮懺祈請文
TTITLE3=中陰救度聞即解脫祈請、往生極樂祈願文
EXTD=
EXTT0=
EXTT1=
EXTT2=
EXTT3=
PLAYORDER=
